<?xml version="1.0" standalone="no"?>
<!DOCTYPE svg PUBLIC "-//W3C//DTD SVG 20010904//EN"
 "http://www.w3.org/TR/2001/REC-SVG-20010904/DTD/svg10.dtd">
<svg version="1.0" xmlns="http://www.w3.org/2000/svg"
 width="16" height="16" viewBox="0 0 256.000000 256.000000"
 preserveAspectRatio="xMidYMid meet">
<metadata>
Created by potrace 1.14, written by Peter Selinger 2001-2017
</metadata>
<g transform="translate(0.000000,256.000000) scale(0.100000,-0.100000)"
fill="#454545" stroke="none">
<path d="M911 2484 c-192 -51 -333 -223 -357 -434 l-7 -60 -273 0 -274 0 0
-74 0 -75 37 -3 38 -3 65 -887 64 -888 334 0 334 0 -55 61 c-31 33 -72 94 -92
135 -32 65 -43 77 -76 91 -132 52 -189 253 -113 394 31 55 91 107 136 116 21
4 36 20 63 68 73 131 181 217 303 242 37 8 67 15 69 16 2 3 53 610 53 639 0
14 8 18 40 18 l40 0 0 75 0 75 -296 0 -297 0 6 58 c17 185 157 329 342 352 35
4 68 11 74 15 15 8 14 58 -1 73 -16 16 -90 14 -157 -4z"/>
<path d="M1020 1073 c-65 -23 -127 -70 -171 -132 -22 -30 -39 -58 -39 -63 0
-4 345 -8 766 -8 l765 0 -23 41 c-28 51 -101 120 -159 151 l-44 23 -525 2
c-458 2 -531 0 -570 -14z"/>
<path d="M674 761 c-54 -33 -78 -78 -82 -151 -3 -54 1 -73 20 -110 14 -25 40
-54 59 -65 33 -20 53 -20 859 -23 454 -2 849 0 878 3 65 8 113 46 138 110 30
79 2 183 -60 228 l-31 22 -875 3 c-846 2 -876 1 -906 -17z m1376 -93 c19 -6
66 -26 104 -45 82 -41 113 -40 181 7 37 25 48 29 65 20 34 -18 25 -53 -22 -86
-98 -69 -142 -70 -265 -11 -73 35 -98 42 -148 42 -53 0 -68 -5 -125 -41 -128
-80 -204 -84 -339 -15 -104 53 -142 54 -247 6 -96 -44 -126 -44 -189 -2 -61
41 -105 57 -157 57 -50 0 -72 -11 -131 -68 -39 -39 -50 -45 -65 -36 -34 22
-26 58 24 107 91 90 201 102 325 33 36 -20 78 -36 94 -36 15 0 53 15 84 33 50
28 65 32 131 32 68 0 81 -4 140 -37 127 -72 185 -71 305 2 98 60 139 67 235
38z"/>
<path d="M790 325 c0 -3 11 -28 25 -55 30 -59 111 -142 168 -173 l42 -22 545
0 c543 0 545 0 590 22 58 29 133 103 170 169 17 28 30 54 30 58 0 3 -353 6
-785 6 -432 0 -785 -2 -785 -5z"/>
</g>
</svg>
